<?xml version="1.0" standalone="no"?>
<!DOCTYPE svg PUBLIC "-//W3C//DTD SVG 20010904//EN"
 "http://www.w3.org/TR/2001/REC-SVG-20010904/DTD/svg10.dtd">
<svg version="1.0" xmlns="http://www.w3.org/2000/svg"
 width="852.000000pt" height="798.000000pt" viewBox="0 0 852.000000 798.000000"
 preserveAspectRatio="xMidYMid meet">

<g transform="translate(0.000000,798.000000) scale(0.100000,-0.100000)"
fill="#000000" stroke="none">
<path d="M3190 7965 c-108 -17 -259 -65 -380 -122 -124 -57 -308 -181 -385
-257 -167 -167 -284 -411 -337 -704 -28 -157 -31 -462 -5 -600 45 -237 101
-401 217 -637 210 -428 475 -722 774 -861 129 -59 212 -77 361 -77 151 0 235
19 368 81 119 56 272 175 350 273 147 184 249 457 286 769 71 593 0 1140 -194
1508 -118 222 -284 405 -463 511 -193 114 -376 150 -592 116z"/>
<path d="M5760 7905 c-84 -16 -230 -65 -300 -100 -256 -131 -494 -368 -683
-682 -84 -138 -127 -234 -166 -360 -68 -221 -85 -373 -78 -677 5 -237 23 -388
67 -575 48 -201 264 -514 453 -657 83 -62 226 -131 312 -149 415 -87 839 202
1212 826 141 237 203 375 262 584 66 235 86 380 96 690 7 218 -4 329 -46 455
-100 303 -361 542 -688 627 -122 31 -327 40 -441 18z"/>
<path d="M867 6069 c-398 -34 -743 -370 -840 -819 -31 -142 -30 -448 1 -615
48 -254 124 -475 257 -740 112 -225 169 -309 295 -436 240 -241 468 -361 758
-400 168 -22 392 8 542 72 128 56 280 142 353 201 237 191 360 481 344 812 -7
147 -25 243 -84 446 -160 552 -436 1000 -774 1253 -213 160 -557 251 -852 226z"/>
<path d="M7450 5855 c-194 -43 -373 -142 -573 -314 -243 -210 -413 -469 -591
-900 -111 -270 -144 -436 -133 -666 10 -201 60 -389 158 -590 62 -127 117
-191 224 -255 210 -127 359 -172 565 -173 216 -2 325 38 535 195 188 140 401
370 527 568 195 306 319 672 348 1033 29 352 -55 623 -260 840 -111 119 -213
181 -385 237 -86 28 -117 33 -225 36 -85 3 -146 -1 -190 -11z"/>
<path d="M4032 4639 c-139 -12 -273 -37 -407 -75 -340 -96 -478 -232 -731
-714 -124 -236 -169 -304 -254 -383 -88 -82 -161 -128 -373 -239 -103 -54
-227 -124 -275 -155 -429 -276 -753 -676 -867 -1068 -48 -167 -59 -248 -59
-450 -1 -164 2 -204 22 -295 53 -237 166 -452 330 -631 133 -144 284 -245 607
-404 312 -154 512 -208 818 -221 250 -10 409 19 887 166 330 102 368 110 511
110 177 0 273 -19 619 -125 426 -131 654 -167 918 -146 413 34 788 181 1123
437 161 123 262 253 365 468 200 419 217 887 46 1284 -72 166 -175 295 -369
464 -193 168 -440 332 -718 478 -138 72 -151 83 -250 205 -94 117 -154 203
-363 526 -188 290 -243 358 -360 446 -200 151 -485 251 -874 308 -183 26 -199
27 -346 14z"/>
</g>
</svg>
