<?xml version="1.0" encoding="UTF-8" standalone="no"?>
<!DOCTYPE svg PUBLIC "-//W3C//DTD SVG 1.1//EN"
 "http://www.w3.org/Graphics/SVG/1.1/DTD/svg11.dtd">
<!-- Generated by graphviz version 2.44.1 (20200629.0846)
 -->
<!-- Title: Tree Pages: 1 -->
<svg width="1023pt" height="477pt"
 viewBox="0.00 0.00 1023.00 477.00" xmlns="http://www.w3.org/2000/svg" xmlns:xlink="http://www.w3.org/1999/xlink">
<g id="graph0" class="graph" transform="scale(1 1) rotate(0) translate(4 473)">
<title>Tree</title>
<polygon fill="white" stroke="transparent" points="-4,4 -4,-473 1019,-473 1019,4 -4,4"/>
<!-- 0 -->
<g id="node1" class="node">
<title>0</title>
<polygon fill="#afd7f4" stroke="black" points="636,-469 491,-469 491,-401 636,-401 636,-469"/>
<text text-anchor="middle" x="563.5" y="-453.8" font-family="Times,serif" font-size="14.00">worst radius &lt;= 16.795</text>
<text text-anchor="middle" x="563.5" y="-438.8" font-family="Times,serif" font-size="14.00">samples = 426</text>
<text text-anchor="middle" x="563.5" y="-423.8" font-family="Times,serif" font-size="14.00">value = [159, 267]</text>
<text text-anchor="middle" x="563.5" y="-408.8" font-family="Times,serif" font-size="14.00">class = benign</text>
</g>
<!-- 1 -->
<g id="node2" class="node">
<title>1</title>
<polygon fill="#4ca6e8" stroke="black" points="546.5,-365 360.5,-365 360.5,-297 546.5,-297 546.5,-365"/>
<text text-anchor="middle" x="453.5" y="-349.8" font-family="Times,serif" font-size="14.00">worst concave points &lt;= 0.136</text>
<text text-anchor="middle" x="453.5" y="-334.8" font-family="Times,serif" font-size="14.00">samples = 284</text>
<text text-anchor="middle" x="453.5" y="-319.8" font-family="Times,serif" font-size="14.00">value = [25, 259]</text>
<text text-anchor="middle" x="453.5" y="-304.8" font-family="Times,serif" font-size="14.00">class = benign</text>
</g>
<!-- 0&#45;&gt;1 -->
<g id="edge1" class="edge">
<title>0&#45;&gt;1</title>
<path fill="none" stroke="black" d="M527.79,-400.88C517.89,-391.71 507.04,-381.65 496.77,-372.12"/>
<polygon fill="black" stroke="black" points="499.12,-369.53 489.41,-365.3 494.36,-374.67 499.12,-369.53"/>
<text text-anchor="middle" x="490.35" y="-386.58" font-family="Times,serif" font-size="14.00">True</text>
</g>
<!-- 14 -->
<g id="node15" class="node">
<title>14</title>
<polygon fill="#e78945" stroke="black" points="714,-365 575,-365 575,-297 714,-297 714,-365"/>
<text text-anchor="middle" x="644.5" y="-349.8" font-family="Times,serif" font-size="14.00">texture error &lt;= 0.473</text>
<text text-anchor="middle" x="644.5" y="-334.8" font-family="Times,serif" font-size="14.00">samples = 142</text>
<text text-anchor="middle" x="644.5" y="-319.8" font-family="Times,serif" font-size="14.00">value = [134, 8]</text>
<text text-anchor="middle" x="644.5" y="-304.8" font-family="Times,serif" font-size="14.00">class = malignant</text>
</g>
<!-- 0&#45;&gt;14 -->
<g id="edge14" class="edge">
<title>0&#45;&gt;14</title>
<path fill="none" stroke="black" d="M589.8,-400.88C596.8,-392.07 604.45,-382.43 611.75,-373.24"/>
<polygon fill="black" stroke="black" points="614.58,-375.31 618.06,-365.3 609.1,-370.95 614.58,-375.31"/>
<text text-anchor="middle" x="620.91" y="-386.44" font-family="Times,serif" font-size="14.00">False</text>
</g>
<!-- 2 -->
<g id="node3" class="node">
<title>2</title>
<polygon fill="#3c9fe5" stroke="black" points="351.5,-261 217.5,-261 217.5,-193 351.5,-193 351.5,-261"/>
<text text-anchor="middle" x="284.5" y="-245.8" font-family="Times,serif" font-size="14.00">radius error &lt;= 1.048</text>
<text text-anchor="middle" x="284.5" y="-230.8" font-family="Times,serif" font-size="14.00">samples = 252</text>
<text text-anchor="middle" x="284.5" y="-215.8" font-family="Times,serif" font-size="14.00">value = [4, 248]</text>
<text text-anchor="middle" x="284.5" y="-200.8" font-family="Times,serif" font-size="14.00">class = benign</text>
</g>
<!-- 1&#45;&gt;2 -->
<g id="edge2" class="edge">
<title>1&#45;&gt;2</title>
<path fill="none" stroke="black" d="M398.63,-296.88C382.46,-287.12 364.64,-276.37 347.97,-266.31"/>
<polygon fill="black" stroke="black" points="349.75,-263.3 339.38,-261.12 346.14,-269.29 349.75,-263.3"/>
</g>
<!-- 7 -->
<g id="node8" class="node">
<title>7</title>
<polygon fill="#f3c3a1" stroke="black" points="525,-261 382,-261 382,-193 525,-193 525,-261"/>
<text text-anchor="middle" x="453.5" y="-245.8" font-family="Times,serif" font-size="14.00">worst texture &lt;= 25.62</text>
<text text-anchor="middle" x="453.5" y="-230.8" font-family="Times,serif" font-size="14.00">samples = 32</text>
<text text-anchor="middle" x="453.5" y="-215.8" font-family="Times,serif" font-size="14.00">value = [21, 11]</text>
<text text-anchor="middle" x="453.5" y="-200.8" font-family="Times,serif" font-size="14.00">class = malignant</text>
</g>
<!-- 1&#45;&gt;7 -->
<g id="edge7" class="edge">
<title>1&#45;&gt;7</title>
<path fill="none" stroke="black" d="M453.5,-296.88C453.5,-288.78 453.5,-279.98 453.5,-271.47"/>
<polygon fill="black" stroke="black" points="457,-271.3 453.5,-261.3 450,-271.3 457,-271.3"/>
</g>
<!-- 3 -->
<g id="node4" class="node">
<title>3</title>
<polygon fill="#3b9ee5" stroke="black" points="210,-157 45,-157 45,-89 210,-89 210,-157"/>
<text text-anchor="middle" x="127.5" y="-141.8" font-family="Times,serif" font-size="14.00">smoothness error &lt;= 0.003</text>
<text text-anchor="middle" x="127.5" y="-126.8" font-family="Times,serif" font-size="14.00">samples = 251</text>
<text text-anchor="middle" x="127.5" y="-111.8" font-family="Times,serif" font-size="14.00">value = [3, 248]</text>
<text text-anchor="middle" x="127.5" y="-96.8" font-family="Times,serif" font-size="14.00">class = benign</text>
</g>
<!-- 2&#45;&gt;3 -->
<g id="edge3" class="edge">
<title>2&#45;&gt;3</title>
<path fill="none" stroke="black" d="M233.53,-192.88C218.64,-183.21 202.25,-172.56 186.89,-162.59"/>
<polygon fill="black" stroke="black" points="188.78,-159.64 178.49,-157.12 184.96,-165.51 188.78,-159.64"/>
</g>
<!-- 6 -->
<g id="node7" class="node">
<title>6</title>
<polygon fill="#e58139" stroke="black" points="341,-149.5 228,-149.5 228,-96.5 341,-96.5 341,-149.5"/>
<text text-anchor="middle" x="284.5" y="-134.3" font-family="Times,serif" font-size="14.00">samples = 1</text>
<text text-anchor="middle" x="284.5" y="-119.3" font-family="Times,serif" font-size="14.00">value = [1, 0]</text>
<text text-anchor="middle" x="284.5" y="-104.3" font-family="Times,serif" font-size="14.00">class = malignant</text>
</g>
<!-- 2&#45;&gt;6 -->
<g id="edge6" class="edge">
<title>2&#45;&gt;6</title>
<path fill="none" stroke="black" d="M284.5,-192.88C284.5,-182.33 284.5,-170.6 284.5,-159.85"/>
<polygon fill="black" stroke="black" points="288,-159.52 284.5,-149.52 281,-159.52 288,-159.52"/>
</g>
<!-- 4 -->
<g id="node5" class="node">
<title>4</title>
<polygon fill="#7bbeee" stroke="black" points="95,-53 0,-53 0,0 95,0 95,-53"/>
<text text-anchor="middle" x="47.5" y="-37.8" font-family="Times,serif" font-size="14.00">samples = 4</text>
<text text-anchor="middle" x="47.5" y="-22.8" font-family="Times,serif" font-size="14.00">value = [1, 3]</text>
<text text-anchor="middle" x="47.5" y="-7.8" font-family="Times,serif" font-size="14.00">class = benign</text>
</g>
<!-- 3&#45;&gt;4 -->
<g id="edge4" class="edge">
<title>3&#45;&gt;4</title>
<path fill="none" stroke="black" d="M99.52,-88.95C91.85,-79.89 83.54,-70.07 75.85,-60.99"/>
<polygon fill="black" stroke="black" points="78.42,-58.61 69.29,-53.24 73.08,-63.13 78.42,-58.61"/>
</g>
<!-- 5 -->
<g id="node6" class="node">
<title>5</title>
<polygon fill="#3b9ee5" stroke="black" points="218,-53 113,-53 113,0 218,0 218,-53"/>
<text text-anchor="middle" x="165.5" y="-37.8" font-family="Times,serif" font-size="14.00">samples = 247</text>
<text text-anchor="middle" x="165.5" y="-22.8" font-family="Times,serif" font-size="14.00">value = [2, 245]</text>
<text text-anchor="middle" x="165.5" y="-7.8" font-family="Times,serif" font-size="14.00">class = benign</text>
</g>
<!-- 3&#45;&gt;5 -->
<g id="edge5" class="edge">
<title>3&#45;&gt;5</title>
<path fill="none" stroke="black" d="M140.79,-88.95C144.21,-80.44 147.9,-71.26 151.37,-62.65"/>
<polygon fill="black" stroke="black" points="154.67,-63.82 155.15,-53.24 148.17,-61.21 154.67,-63.82"/>
</g>
<!-- 8 -->
<g id="node9" class="node">
<title>8</title>
<polygon fill="#7bbeee" stroke="black" points="528,-157 359,-157 359,-89 528,-89 528,-157"/>
<text text-anchor="middle" x="443.5" y="-141.8" font-family="Times,serif" font-size="14.00">worst smoothness &lt;= 0.179</text>
<text text-anchor="middle" x="443.5" y="-126.8" font-family="Times,serif" font-size="14.00">samples = 12</text>
<text text-anchor="middle" x="443.5" y="-111.8" font-family="Times,serif" font-size="14.00">value = [3, 9]</text>
<text text-anchor="middle" x="443.5" y="-96.8" font-family="Times,serif" font-size="14.00">class = benign</text>
</g>
<!-- 7&#45;&gt;8 -->
<g id="edge8" class="edge">
<title>7&#45;&gt;8</title>
<path fill="none" stroke="black" d="M450.25,-192.88C449.46,-184.78 448.6,-175.98 447.76,-167.47"/>
<polygon fill="black" stroke="black" points="451.22,-166.91 446.76,-157.3 444.26,-167.59 451.22,-166.91"/>
</g>
<!-- 11 -->
<g id="node12" class="node">
<title>11</title>
<polygon fill="#e88f4f" stroke="black" points="707,-157 546,-157 546,-89 707,-89 707,-157"/>
<text text-anchor="middle" x="626.5" y="-141.8" font-family="Times,serif" font-size="14.00">worst symmetry &lt;= 0.268</text>
<text text-anchor="middle" x="626.5" y="-126.8" font-family="Times,serif" font-size="14.00">samples = 20</text>
<text text-anchor="middle" x="626.5" y="-111.8" font-family="Times,serif" font-size="14.00">value = [18, 2]</text>
<text text-anchor="middle" x="626.5" y="-96.8" font-family="Times,serif" font-size="14.00">class = malignant</text>
</g>
<!-- 7&#45;&gt;11 -->
<g id="edge11" class="edge">
<title>7&#45;&gt;11</title>
<path fill="none" stroke="black" d="M509.67,-192.88C526.22,-183.12 544.47,-172.37 561.52,-162.31"/>
<polygon fill="black" stroke="black" points="563.48,-165.22 570.32,-157.12 559.93,-159.19 563.48,-165.22"/>
</g>
<!-- 9 -->
<g id="node10" class="node">
<title>9</title>
<polygon fill="#4fa8e8" stroke="black" points="369,-53 274,-53 274,0 369,0 369,-53"/>
<text text-anchor="middle" x="321.5" y="-37.8" font-family="Times,serif" font-size="14.00">samples = 10</text>
<text text-anchor="middle" x="321.5" y="-22.8" font-family="Times,serif" font-size="14.00">value = [1, 9]</text>
<text text-anchor="middle" x="321.5" y="-7.8" font-family="Times,serif" font-size="14.00">class = benign</text>
</g>
<!-- 8&#45;&gt;9 -->
<g id="edge9" class="edge">
<title>8&#45;&gt;9</title>
<path fill="none" stroke="black" d="M400.83,-88.95C388.55,-79.43 375.17,-69.07 362.96,-59.62"/>
<polygon fill="black" stroke="black" points="364.78,-56.59 354.73,-53.24 360.49,-62.13 364.78,-56.59"/>
</g>
<!-- 10 -->
<g id="node11" class="node">
<title>10</title>
<polygon fill="#e58139" stroke="black" points="500,-53 387,-53 387,0 500,0 500,-53"/>
<text text-anchor="middle" x="443.5" y="-37.8" font-family="Times,serif" font-size="14.00">samples = 2</text>
<text text-anchor="middle" x="443.5" y="-22.8" font-family="Times,serif" font-size="14.00">value = [2, 0]</text>
<text text-anchor="middle" x="443.5" y="-7.8" font-family="Times,serif" font-size="14.00">class = malignant</text>
</g>
<!-- 8&#45;&gt;10 -->
<g id="edge10" class="edge">
<title>8&#45;&gt;10</title>
<path fill="none" stroke="black" d="M443.5,-88.95C443.5,-80.72 443.5,-71.85 443.5,-63.48"/>
<polygon fill="black" stroke="black" points="447,-63.24 443.5,-53.24 440,-63.24 447,-63.24"/>
</g>
<!-- 12 -->
<g id="node13" class="node">
<title>12</title>
<polygon fill="#9ccef2" stroke="black" points="613,-53 518,-53 518,0 613,0 613,-53"/>
<text text-anchor="middle" x="565.5" y="-37.8" font-family="Times,serif" font-size="14.00">samples = 3</text>
<text text-anchor="middle" x="565.5" y="-22.8" font-family="Times,serif" font-size="14.00">value = [1, 2]</text>
<text text-anchor="middle" x="565.5" y="-7.8" font-family="Times,serif" font-size="14.00">class = benign</text>
</g>
<!-- 11&#45;&gt;12 -->
<g id="edge12" class="edge">
<title>11&#45;&gt;12</title>
<path fill="none" stroke="black" d="M605.17,-88.95C599.5,-80.17 593.36,-70.66 587.65,-61.82"/>
<polygon fill="black" stroke="black" points="590.48,-59.74 582.11,-53.24 584.6,-63.54 590.48,-59.74"/>
</g>
<!-- 13 -->
<g id="node14" class="node">
<title>13</title>
<polygon fill="#e58139" stroke="black" points="744,-53 631,-53 631,0 744,0 744,-53"/>
<text text-anchor="middle" x="687.5" y="-37.8" font-family="Times,serif" font-size="14.00">samples = 17</text>
<text text-anchor="middle" x="687.5" y="-22.8" font-family="Times,serif" font-size="14.00">value = [17, 0]</text>
<text text-anchor="middle" x="687.5" y="-7.8" font-family="Times,serif" font-size="14.00">class = malignant</text>
</g>
<!-- 11&#45;&gt;13 -->
<g id="edge13" class="edge">
<title>11&#45;&gt;13</title>
<path fill="none" stroke="black" d="M647.83,-88.95C653.5,-80.17 659.64,-70.66 665.35,-61.82"/>
<polygon fill="black" stroke="black" points="668.4,-63.54 670.89,-53.24 662.52,-59.74 668.4,-63.54"/>
</g>
<!-- 15 -->
<g id="node16" class="node">
<title>15</title>
<polygon fill="#399de5" stroke="black" points="692,-253.5 597,-253.5 597,-200.5 692,-200.5 692,-253.5"/>
<text text-anchor="middle" x="644.5" y="-238.3" font-family="Times,serif" font-size="14.00">samples = 5</text>
<text text-anchor="middle" x="644.5" y="-223.3" font-family="Times,serif" font-size="14.00">value = [0, 5]</text>
<text text-anchor="middle" x="644.5" y="-208.3" font-family="Times,serif" font-size="14.00">class = benign</text>
</g>
<!-- 14&#45;&gt;15 -->
<g id="edge15" class="edge">
<title>14&#45;&gt;15</title>
<path fill="none" stroke="black" d="M644.5,-296.88C644.5,-286.33 644.5,-274.6 644.5,-263.85"/>
<polygon fill="black" stroke="black" points="648,-263.52 644.5,-253.52 641,-263.52 648,-263.52"/>
</g>
<!-- 16 -->
<g id="node17" class="node">
<title>16</title>
<polygon fill="#e6843d" stroke="black" points="888.5,-261 730.5,-261 730.5,-193 888.5,-193 888.5,-261"/>
<text text-anchor="middle" x="809.5" y="-245.8" font-family="Times,serif" font-size="14.00">worst concavity &lt;= 0.191</text>
<text text-anchor="middle" x="809.5" y="-230.8" font-family="Times,serif" font-size="14.00">samples = 137</text>
<text text-anchor="middle" x="809.5" y="-215.8" font-family="Times,serif" font-size="14.00">value = [134, 3]</text>
<text text-anchor="middle" x="809.5" y="-200.8" font-family="Times,serif" font-size="14.00">class = malignant</text>
</g>
<!-- 14&#45;&gt;16 -->
<g id="edge16" class="edge">
<title>14&#45;&gt;16</title>
<path fill="none" stroke="black" d="M698.07,-296.88C713.71,-287.21 730.94,-276.56 747.08,-266.59"/>
<polygon fill="black" stroke="black" points="749.25,-269.36 755.92,-261.12 745.57,-263.41 749.25,-269.36"/>
</g>
<!-- 17 -->
<g id="node18" class="node">
<title>17</title>
<polygon fill="#bddef6" stroke="black" points="884,-157 735,-157 735,-89 884,-89 884,-157"/>
<text text-anchor="middle" x="809.5" y="-141.8" font-family="Times,serif" font-size="14.00">worst texture &lt;= 30.975</text>
<text text-anchor="middle" x="809.5" y="-126.8" font-family="Times,serif" font-size="14.00">samples = 5</text>
<text text-anchor="middle" x="809.5" y="-111.8" font-family="Times,serif" font-size="14.00">value = [2, 3]</text>
<text text-anchor="middle" x="809.5" y="-96.8" font-family="Times,serif" font-size="14.00">class = benign</text>
</g>
<!-- 16&#45;&gt;17 -->
<g id="edge17" class="edge">
<title>16&#45;&gt;17</title>
<path fill="none" stroke="black" d="M809.5,-192.88C809.5,-184.78 809.5,-175.98 809.5,-167.47"/>
<polygon fill="black" stroke="black" points="813,-167.3 809.5,-157.3 806,-167.3 813,-167.3"/>
</g>
<!-- 20 -->
<g id="node21" class="node">
<title>20</title>
<polygon fill="#e58139" stroke="black" points="1015,-149.5 902,-149.5 902,-96.5 1015,-96.5 1015,-149.5"/>
<text text-anchor="middle" x="958.5" y="-134.3" font-family="Times,serif" font-size="14.00">samples = 132</text>
<text text-anchor="middle" x="958.5" y="-119.3" font-family="Times,serif" font-size="14.00">value = [132, 0]</text>
<text text-anchor="middle" x="958.5" y="-104.3" font-family="Times,serif" font-size="14.00">class = malignant</text>
</g>
<!-- 16&#45;&gt;20 -->
<g id="edge20" class="edge">
<title>16&#45;&gt;20</title>
<path fill="none" stroke="black" d="M857.88,-192.88C875.55,-180.79 895.47,-167.15 912.89,-155.22"/>
<polygon fill="black" stroke="black" points="914.95,-158.06 921.22,-149.52 910.99,-152.28 914.95,-158.06"/>
</g>
<!-- 18 -->
<g id="node19" class="node">
<title>18</title>
<polygon fill="#399de5" stroke="black" points="857,-53 762,-53 762,0 857,0 857,-53"/>
<text text-anchor="middle" x="809.5" y="-37.8" font-family="Times,serif" font-size="14.00">samples = 3</text>
<text text-anchor="middle" x="809.5" y="-22.8" font-family="Times,serif" font-size="14.00">value = [0, 3]</text>
<text text-anchor="middle" x="809.5" y="-7.8" font-family="Times,serif" font-size="14.00">class = benign</text>
</g>
<!-- 17&#45;&gt;18 -->
<g id="edge18" class="edge">
<title>17&#45;&gt;18</title>
<path fill="none" stroke="black" d="M809.5,-88.95C809.5,-80.72 809.5,-71.85 809.5,-63.48"/>
<polygon fill="black" stroke="black" points="813,-63.24 809.5,-53.24 806,-63.24 813,-63.24"/>
</g>
<!-- 19 -->
<g id="node20" class="node">
<title>19</title>
<polygon fill="#e58139" stroke="black" points="988,-53 875,-53 875,0 988,0 988,-53"/>
<text text-anchor="middle" x="931.5" y="-37.8" font-family="Times,serif" font-size="14.00">samples = 2</text>
<text text-anchor="middle" x="931.5" y="-22.8" font-family="Times,serif" font-size="14.00">value = [2, 0]</text>
<text text-anchor="middle" x="931.5" y="-7.8" font-family="Times,serif" font-size="14.00">class = malignant</text>
</g>
<!-- 17&#45;&gt;19 -->
<g id="edge19" class="edge">
<title>17&#45;&gt;19</title>
<path fill="none" stroke="black" d="M852.17,-88.95C864.45,-79.43 877.83,-69.07 890.04,-59.62"/>
<polygon fill="black" stroke="black" points="892.51,-62.13 898.27,-53.24 888.22,-56.59 892.51,-62.13"/>
</g>
</g>
</svg>
